<svg xmlns="http://www.w3.org/2000/svg" width="115" height="149" viewBox="0 0 34.4 44.8">
    <defs>
        <style>.a{fill:#e9e9e0;}.b{fill:#d9d7ca;}.c{fill:#cc4b4c;}.d{fill:#65349c;}.e{fill:#fff;}</style>
    </defs>
    <title>pdf_violet</title>
    <path class="a"
          d="M24.39,0H1.17C.52,0,0,.52,0,1.54V44a1.2,1.2,0,0,0,1.17.8H33.23A1.2,1.2,0,0,0,34.4,44V10.38c0-.56-.07-.74-.2-.87L24.89.21a.71.71,0,0,0-.5-.21Zm0,0"/>
    <path class="b" d="M24.8.12V9.6h9.48Zm0,0"/>
    <path class="c"
          d="M10.41,26.66a1.28,1.28,0,0,1-.77-.26,1.91,1.91,0,0,1-.89-1.79c.14-1.3,1.75-2.67,4.79-4.05a53.38,53.38,0,0,0,3-8.6c-.8-1.74-1.57-4-1-5.31a1.53,1.53,0,0,1,.91-1,3.88,3.88,0,0,1,.81-.14c.41,0,.76.52,1,.84s.77.94-.3,5.44a25.57,25.57,0,0,0,4.07,6,15.84,15.84,0,0,1,2.69-.28c1.25,0,2,.29,2.32.9a1.61,1.61,0,0,1-.31,1.73,2.13,2.13,0,0,1-1.78,1,5.33,5.33,0,0,1-3.37-1.83,38.59,38.59,0,0,0-7.06,2.26A22.79,22.79,0,0,1,12.64,25c-.82,1.15-1.53,1.68-2.23,1.68Zm2.13-4.1c-1.71,1-2.41,1.75-2.45,2.19,0,.07,0,.27.34.55.12,0,.81-.36,2.11-2.75ZM23.45,19c.65.5.81.76,1.24.76a1.2,1.2,0,0,0,1-.36,1.39,1.39,0,0,0,.18-.33c-.1-.05-.23-.16-.94-.16a12.1,12.1,0,0,0-1.45.09Zm-6-5.27a56.56,56.56,0,0,1-2.14,6.05,39.64,39.64,0,0,1,5.19-1.61,27.38,27.38,0,0,1-3.06-4.44ZM17,7a1.92,1.92,0,0,0,.08,2.57C17.82,7.85,17,7,17,7Zm0,0"/>
    <path class="d" d="M33.23,44.8H1.17A1.17,1.17,0,0,1,0,43.63V31.2H34.4V43.63a1.17,1.17,0,0,1-1.17,1.17Zm0,0"/>
    <path class="e"
          d="M8.71,42.4H7.39V34.34H9.71a3.27,3.27,0,0,1,1,.16,2.73,2.73,0,0,1,.9.49,2.56,2.56,0,0,1,.64.79,2.19,2.19,0,0,1,.25,1,2.8,2.8,0,0,1-.21,1.11,2.33,2.33,0,0,1-.58.84,2.68,2.68,0,0,1-.9.52,3.43,3.43,0,0,1-1.16.19h-1Zm0-7.06v3.19h1.2a1.44,1.44,0,0,0,.48-.08,1.2,1.2,0,0,0,.43-.27,1.35,1.35,0,0,0,.32-.52,2.52,2.52,0,0,0,.12-.83,2.34,2.34,0,0,0-.05-.45,1.34,1.34,0,0,0-.23-.49,1.31,1.31,0,0,0-.48-.4,1.77,1.77,0,0,0-.81-.16Zm0,0"/>
    <path class="e"
          d="M20.57,38.15a6,6,0,0,1-.21,1.7A4.27,4.27,0,0,1,19.82,41a2.79,2.79,0,0,1-.74.75,3.56,3.56,0,0,1-.79.41,3.48,3.48,0,0,1-.7.17l-.47,0H14.07V34.34H16.5a4.59,4.59,0,0,1,1.79.32,3.71,3.71,0,0,1,1.28.86,3.52,3.52,0,0,1,.76,1.22,4,4,0,0,1,.25,1.41Zm-3.89,3.29a2.18,2.18,0,0,0,1.93-.85,5.09,5.09,0,0,0,.47-3.47,2.16,2.16,0,0,0-.46-.89,2.46,2.46,0,0,0-.94-.65,4,4,0,0,0-1.53-.25h-.77v6.1Zm0,0"/>
    <path class="e" d="M23.81,35.34v2.54h3.37v.9H23.81V42.4H22.48V34.34h5v1Zm0,0"/>
</svg>